<svg width="44" height="44" viewBox="0 0 44 44" fill="none" xmlns="http://www.w3.org/2000/svg">
<path d="M22 3.6665C19.5924 3.6665 17.2084 4.14071 14.9841 5.06205C12.7598 5.98338 10.7387 7.33381 9.03633 9.03621C5.59817 12.4744 3.66663 17.1375 3.66663 21.9998C3.66663 30.1032 8.92829 36.9782 16.2066 39.4165C17.1233 39.5632 17.4166 38.9948 17.4166 38.4998V35.4015C12.3383 36.5015 11.2566 32.9448 11.2566 32.9448C10.4133 30.8182 9.22163 30.2498 9.22163 30.2498C7.55329 29.1132 9.34996 29.1498 9.34996 29.1498C11.1833 29.2782 12.155 31.0382 12.155 31.0382C13.75 33.8248 16.445 32.9998 17.49 32.5598C17.655 31.3682 18.1316 30.5615 18.645 30.1032C14.575 29.6448 10.3033 28.0682 10.3033 21.0832C10.3033 19.0482 11 17.4165 12.1916 16.1148C12.0083 15.6565 11.3666 13.7498 12.375 11.2748C12.375 11.2748 13.915 10.7798 17.4166 13.1448C18.865 12.7415 20.4416 12.5398 22 12.5398C23.5583 12.5398 25.135 12.7415 26.5833 13.1448C30.085 10.7798 31.625 11.2748 31.625 11.2748C32.6333 13.7498 31.9916 15.6565 31.8083 16.1148C33 17.4165 33.6966 19.0482 33.6966 21.0832C33.6966 28.0865 29.4066 29.6265 25.3183 30.0848C25.9783 30.6532 26.5833 31.7715 26.5833 33.4765V38.4998C26.5833 38.9948 26.8766 39.5815 27.8116 39.4165C35.09 36.9598 40.3333 30.1032 40.3333 21.9998C40.3333 19.5923 39.8591 17.2083 38.9378 14.984C38.0164 12.7597 36.666 10.7386 34.9636 9.03621C33.2612 7.33381 31.2401 5.98338 29.0158 5.06205C26.7915 4.14071 24.4075 3.6665 22 3.6665Z" fill="black"/>
</svg>
