<svg width="44" height="44" viewBox="0 0 44 44" fill="none" xmlns="http://www.w3.org/2000/svg">
<path d="M22 3.66699C19.5925 3.66699 17.2085 4.1412 14.9842 5.06253C12.7599 5.98387 10.7388 7.33429 9.0364 9.0367C5.59823 12.4749 3.66669 17.138 3.66669 22.0003C3.66669 30.1037 8.92835 36.9787 16.2067 39.417C17.1234 39.5637 17.4167 38.9953 17.4167 38.5003V35.402C12.3384 36.502 11.2567 32.9453 11.2567 32.9453C10.4134 30.8187 9.22169 30.2503 9.22169 30.2503C7.55335 29.1137 9.35002 29.1503 9.35002 29.1503C11.1834 29.2787 12.155 31.0387 12.155 31.0387C13.75 33.8253 16.445 33.0003 17.49 32.5603C17.655 31.3687 18.1317 30.562 18.645 30.1037C14.575 29.6453 10.3034 28.0687 10.3034 21.0837C10.3034 19.0487 11 17.417 12.1917 16.1153C12.0084 15.657 11.3667 13.7503 12.375 11.2753C12.375 11.2753 13.915 10.7803 17.4167 13.1453C18.865 12.742 20.4417 12.5403 22 12.5403C23.5584 12.5403 25.135 12.742 26.5834 13.1453C30.085 10.7803 31.625 11.2753 31.625 11.2753C32.6334 13.7503 31.9917 15.657 31.8084 16.1153C33 17.417 33.6967 19.0487 33.6967 21.0837C33.6967 28.087 29.4067 29.627 25.3184 30.0853C25.9784 30.6537 26.5834 31.772 26.5834 33.477V38.5003C26.5834 38.9953 26.8767 39.582 27.8117 39.417C35.09 36.9603 40.3334 30.1037 40.3334 22.0003C40.3334 19.5928 39.8591 17.2088 38.9378 14.9845C38.0165 12.7602 36.6661 10.7391 34.9636 9.0367C33.2612 7.33429 31.2402 5.98387 29.0159 5.06253C26.7916 4.1412 24.4076 3.66699 22 3.66699Z" fill="white"/>
</svg>
